<svg width="32" height="32" viewBox="0 0 32 32" fill="none" xmlns="http://www.w3.org/2000/svg">
  <!-- Favicon version of Logistic Intel Logo -->
  <!-- Replace with your actual favicon from https://imgur.com/a/318G7xx -->
  <rect width="32" height="32" fill="transparent"/>
  
  <!-- Simplified globe for favicon -->
  <circle cx="16" cy="16" r="12" stroke="#1E2A78" stroke-width="2" fill="none"/>
  <path d="M4 16C4 9.4 9.4 4 16 4C22.6 4 28 9.4 28 16C28 22.6 22.6 28 16 28C9.4 28 4 22.6 4 16Z" stroke="#1E2A78" stroke-width="1" fill="none"/>
  <path d="M16 4V28M4 16H28M8 8C11.5 11.5 20.5 11.5 24 8M8 24C11.5 20.5 20.5 20.5 24 24" stroke="#1E2A78" stroke-width="1" fill="none"/>
  
  <!-- Small accent lines -->
  <circle cx="16" cy="16" r="3" fill="#3AA1FF"/>
  <rect x="13" y="13" width="6" height="6" fill="#FF9E00" opacity="0.7" rx="1"/>
</svg>