<svg width="120" height="40" viewBox="0 0 120 40" fill="none" xmlns="http://www.w3.org/2000/svg">
  <!-- This is a placeholder - Replace with your actual logo from https://imgur.com/a/318G7xx -->
  <!-- Logistic Intel Logo Placeholder -->
  <rect width="120" height="40" fill="transparent"/>
  
  <!-- Globe/World Icon -->
  <circle cx="20" cy="20" r="12" stroke="#1E2A78" stroke-width="2" fill="none"/>
  <path d="M8 20C8 13.4 13.4 8 20 8C26.6 8 32 13.4 32 20C32 26.6 26.6 32 20 32C13.4 32 8 26.6 8 20Z" stroke="#1E2A78" stroke-width="1" fill="none"/>
  <path d="M20 8V32M8 20H32M12 12C15.5 15.5 24.5 15.5 28 12M12 28C15.5 24.5 24.5 24.5 28 28" stroke="#1E2A78" stroke-width="1" fill="none"/>
  
  <!-- Text: "LOGISTIC INTEL" -->
  <text x="42" y="16" font-family="Arial, sans-serif" font-size="8" font-weight="bold" fill="#1E2A78">LOGISTIC</text>
  <text x="42" y="28" font-family="Arial, sans-serif" font-size="8" font-weight="bold" fill="#3AA1FF">INTEL</text>
  
  <!-- Connecting lines for logistics concept -->
  <line x1="35" y1="16" x2="39" y2="16" stroke="#FF9E00" stroke-width="1"/>
  <line x1="35" y1="24" x2="39" y2="24" stroke="#FF9E00" stroke-width="1"/>
</svg>